<svg xmlns="http://www.w3.org/2000/svg" viewBox="0 0 512 512" role="img" aria-label="Monatise lotus logo">
  <rect width="512" height="512" rx="112" fill="#101820"/>
  <circle cx="256" cy="256" r="176" fill="#f8faf5" opacity="0.08"/>
  <path d="M256 128c49 52 72 104 72 151 0 54-31 88-72 88s-72-34-72-88c0-47 23-99 72-151Z" fill="#f8faf5"/>
  <path d="M181 184c49 19 89 50 109 89 22 43 11 84-24 102-35 17-76 1-98-42-20-39-18-91 13-149Z" fill="#00a878"/>
  <path d="M331 184c31 58 33 110 13 149-22 43-63 59-98 42-35-18-46-59-24-102 20-39 60-70 109-89Z" fill="#00b8d9"/>
  <path d="M124 267c58-5 106 7 139 34 36 29 42 70 16 101-25 31-67 34-103 5-33-27-51-74-52-140Z" fill="#e8a214"/>
  <path d="M388 267c-1 66-19 113-52 140-36 29-78 26-103-5-26-31-20-72 16-101 33-27 81-39 139-34Z" fill="#e63946"/>
  <path d="M164 358c40 28 70 38 92 38s52-10 92-38" fill="none" stroke="#f8faf5" stroke-width="24" stroke-linecap="round"/>
</svg>
