<svg xmlns="http://www.w3.org/2000/svg" viewBox="0 0 512 512" role="img" aria-label="Monatise yin yang logo">
  <rect width="512" height="512" rx="112" fill="#101820"/>
  <circle cx="256" cy="256" r="176" fill="#f8faf5" opacity="0.08"/>
  <circle cx="256" cy="256" r="150" fill="#f8faf5"/>
  <path d="M256 106a150 150 0 0 1 0 300 75 75 0 0 1 0-150 75 75 0 0 0 0-150Z" fill="#101820"/>
  <path d="M256 106a75 75 0 0 1 0 150 75 75 0 0 0 0 150 150 150 0 0 1 0-300Z" fill="#f8faf5"/>
  <circle cx="256" cy="181" r="24" fill="#00b8d9"/>
  <circle cx="256" cy="331" r="24" fill="#00a878"/>
  <circle cx="256" cy="256" r="150" fill="none" stroke="#00a878" stroke-width="20"/>
  <circle cx="256" cy="256" r="118" fill="none" stroke="#00b8d9" stroke-width="8" opacity="0.42"/>
</svg>
